<svg viewBox="0 0 19 20" fill="none" xmlns="http://www.w3.org/2000/svg">
  <path
    d="M3.95833 17.125C3.52292 17.125 3.15017 16.97 2.8401 16.6599C2.53003 16.3498 2.375 15.9771 2.375 15.5417V4.45833C2.375 4.02292 2.53003 3.65017 2.8401 3.3401C3.15017 3.03003 3.52292 2.875 3.95833 2.875H15.0417C15.4771 2.875 15.8498 3.03003 16.1599 3.3401C16.47 3.65017 16.625 4.02292 16.625 4.45833V15.5417C16.625 15.9771 16.47 16.3498 16.1599 16.6599C15.8498 16.97 15.4771 17.125 15.0417 17.125H3.95833ZM9.5 13.1667C10.0014 13.1667 10.4566 13.0215 10.8656 12.7312C11.2747 12.441 11.5583 12.0583 11.7167 11.5833H15.0417V4.45833H3.95833V11.5833H7.28333C7.44167 12.0583 7.72535 12.441 8.13438 12.7312C8.5434 13.0215 8.99861 13.1667 9.5 13.1667Z"
    fill="currentColor" />
</svg>