<?xml version="1.0" encoding="UTF-8" standalone="no"?>
<svg
   viewBox="0 0 122 21"
   fill="none"
   class="h-[22px] text-[#003F45] lg:h-[30px]"
   version="1.1"
   id="svg10"
   sodipodi:docname="logo-wide.svg"
   inkscape:version="1.3.2 (1:1.3.2+202311252150+091e20ef0f)"
   xmlns:inkscape="http://www.inkscape.org/namespaces/inkscape"
   xmlns:sodipodi="http://sodipodi.sourceforge.net/DTD/sodipodi-0.dtd"
   xmlns="http://www.w3.org/2000/svg"
   xmlns:svg="http://www.w3.org/2000/svg">
  <defs
     id="defs10" />
  <sodipodi:namedview
     id="namedview10"
     pagecolor="#ffffff"
     bordercolor="#666666"
     borderopacity="1.0"
     inkscape:showpageshadow="2"
     inkscape:pageopacity="0.0"
     inkscape:pagecheckerboard="0"
     inkscape:deskcolor="#d1d1d1"
     inkscape:zoom="9"
     inkscape:cx="61"
     inkscape:cy="10.5"
     inkscape:window-width="1920"
     inkscape:window-height="1043"
     inkscape:window-x="0"
     inkscape:window-y="0"
     inkscape:window-maximized="1"
     inkscape:current-layer="svg10" />
  <path
     fill-rule="evenodd"
     clip-rule="evenodd"
     d="M23.5262 0C26.0255 0 28.3484 1.75771 28.3484 4.26405V15.8348C28.3484 18.3412 26.0255 20.0989 23.5262 20.0989L4.82218 20.0989C2.32292 20.0989 0 18.3412 0 15.8348V4.26405C0 1.75771 2.32292 0 4.82219 0H23.5262ZM25.7057 2.97797C25.5685 2.82894 25.3376 2.84072 25.1913 2.98084L15.2436 12.5071C15.2313 12.5189 15.2241 12.5351 15.2241 12.5522V16.0358C15.2241 16.3697 15.6075 16.558 15.8718 16.354L26.0922 8.46357C26.1908 8.38745 26.2485 8.26993 26.2485 8.14538V4.26405C26.2485 3.81822 26.0561 3.35845 25.7057 2.97797ZM22.0742 2.09988C22.4365 2.09988 22.6139 2.54158 22.3522 2.79218L15.9041 8.96707C15.6485 9.21188 15.2241 9.0307 15.2241 8.67675V2.50186C15.2241 2.27985 15.4041 2.09988 15.6261 2.09988L22.0742 2.09988ZM12.5723 2.09988C12.7943 2.09988 12.9743 2.27985 12.9743 2.50186V8.63882C12.9743 8.99426 12.5468 9.1748 12.292 8.92698L5.9822 2.79002C5.72354 2.53845 5.90164 2.09988 6.26247 2.09988L12.5723 2.09988ZM2.64806 2.97214C2.78622 2.82312 3.01792 2.83624 3.1636 2.97793L12.9521 12.4982L12.9594 12.5053C12.9688 12.5144 12.9743 12.5269 12.9743 12.54V16.0066C12.9743 16.3419 12.5881 16.5298 12.3243 16.323L2.25383 8.42682C2.15664 8.35063 2.09988 8.23398 2.09988 8.11049L2.09988 4.26405C2.09988 3.81594 2.29427 3.35375 2.64806 2.97214ZM2.09988 11.8005C2.09988 11.4653 2.48608 11.2774 2.74989 11.4842L10.1425 17.2807C10.4431 17.5164 10.2764 17.999 9.89447 17.999H4.82218C3.15475 17.999 2.09988 16.8787 2.09988 15.8348L2.09988 11.8005ZM18.3558 17.999C17.9723 17.999 17.8066 17.5132 18.1101 17.2788L25.6009 11.4957C25.8652 11.2917 26.2485 11.4801 26.2485 11.8139V15.8348C26.2485 16.8787 25.1937 17.999 23.5262 17.999L18.3558 17.999Z"
     fill="currentColor"
     id="path1"
     style="fill:#0c5153;fill-opacity:1" />
  <path
     d="M58.6053 1.00488V17.6992H61.5553V1.00488H58.6053Z"
     fill="currentColor"
     id="path2"
     style="fill:#0c5153;fill-opacity:1" />
  <path
     fill-rule="evenodd"
     clip-rule="evenodd"
     d="M72.4651 1.69721H75.4152V17.7054H72.4651V16.3562C71.5961 17.4691 70.3612 18.0256 68.7603 18.0256C67.2205 18.0256 65.9017 17.4463 64.804 16.2876C63.7215 15.1136 63.1803 13.6805 63.1803 11.9882C63.1803 10.2959 63.7215 8.87042 64.804 7.71173C65.9017 6.53779 67.2205 5.95083 68.7603 5.95083C70.3612 5.95083 71.5961 6.5073 72.4651 7.62025V1.69721ZM67.0223 14.3208C67.6321 14.9154 68.3944 15.2127 69.3092 15.2127C70.2239 15.2127 70.9786 14.9154 71.5732 14.3208C72.1678 13.711 72.4651 12.9335 72.4651 11.9882C72.4651 11.043 72.1678 10.273 71.5732 9.67846C70.9786 9.06862 70.2239 8.7637 69.3092 8.7637C68.3944 8.7637 67.6321 9.06862 67.0223 9.67846C66.4277 10.273 66.1304 11.043 66.1304 11.9882C66.1304 12.9335 66.4277 13.711 67.0223 14.3208Z"
     fill="currentColor"
     id="path3"
     style="fill:#0c5153;fill-opacity:1" />
  <path
     d="M84.0125 5.95083C85.2627 5.95083 86.2918 6.37009 87.0998 7.20862C87.9231 8.04714 88.3347 9.20583 88.3347 10.6847V17.7054H85.3846V11.0506C85.3846 10.2883 85.1788 9.70895 84.7672 9.31255C84.3555 8.90091 83.8067 8.69509 83.1206 8.69509C82.3583 8.69509 81.7485 8.93141 81.2911 9.40403C80.8337 9.87665 80.605 10.5856 80.605 11.5308V17.7054H77.6549V1.69721H80.605V7.55165C81.3216 6.48443 82.4574 5.95083 84.0125 5.95083Z"
     fill="currentColor"
     id="path4"
     style="fill:#0c5153;fill-opacity:1" />
  <path
     fill-rule="evenodd"
     clip-rule="evenodd"
     d="M92.8892 13.1934C93.2856 14.6265 94.3604 15.3431 96.1137 15.3431C97.2419 15.3431 98.0957 14.9619 98.675 14.1996L101.053 15.5718C99.9252 17.2031 98.2634 18.0187 96.068 18.0187C94.1775 18.0187 92.6605 17.447 91.517 16.3036C90.3736 15.1601 89.8019 13.7194 89.8019 11.9813C89.8019 10.2586 90.366 8.82543 91.4942 7.68199C92.6224 6.5233 94.0707 5.94395 95.8393 5.94395C97.5163 5.94395 98.8961 6.5233 99.9785 7.68199C101.076 8.84068 101.625 10.2738 101.625 11.9813C101.625 12.3625 101.587 12.7665 101.511 13.1934H92.8892ZM92.8434 10.9065H98.675C98.5073 10.129 98.1566 9.54962 97.623 9.16847C97.1047 8.78732 96.5101 8.59675 95.8393 8.59675C95.0465 8.59675 94.3909 8.80256 93.8725 9.2142C93.3542 9.6106 93.0111 10.1747 92.8434 10.9065Z"
     fill="currentColor"
     id="path5"
     style="fill:#0c5153;fill-opacity:1" />
  <path
     fill-rule="evenodd"
     clip-rule="evenodd"
     d="M120.239 16.2807C119.065 17.4394 117.632 18.0187 115.94 18.0187C114.248 18.0187 112.815 17.4394 111.641 16.2807C110.482 15.1068 109.903 13.6736 109.903 11.9813C109.903 10.289 110.482 8.86355 111.641 7.70486C112.815 6.53092 114.248 5.94395 115.94 5.94395C117.632 5.94395 119.065 6.53092 120.239 7.70486C121.413 8.86355 122 10.289 122 11.9813C122 13.6736 121.413 15.1068 120.239 16.2807ZM113.722 14.2454C114.316 14.84 115.056 15.1373 115.94 15.1373C116.824 15.1373 117.564 14.84 118.158 14.2454C118.753 13.6508 119.05 12.8961 119.05 11.9813C119.05 11.0666 118.753 10.3119 118.158 9.71732C117.564 9.12273 116.824 8.82543 115.94 8.82543C115.056 8.82543 114.316 9.12273 113.722 9.71732C113.142 10.3119 112.853 11.0666 112.853 11.9813C112.853 12.8961 113.142 13.6508 113.722 14.2454Z"
     fill="currentColor"
     id="path6"
     style="fill:#0c5153;fill-opacity:1" />
  <path
     d="M107.527 6.58559C106.902 6.9515 106.452 7.50035 106.177 8.23215V6.26543H103.227V17.6999H106.177V12.2342C106.177 11.1365 106.528 10.3513 107.229 9.87872C107.946 9.40609 108.754 9.22314 109.653 9.32986V6.03674C108.876 6.03674 108.167 6.21969 107.527 6.58559Z"
     fill="currentColor"
     id="path7"
     style="fill:#0c5153;fill-opacity:1" />
  <path
     d="M53.5953 4.36486C53.9612 4.71552 54.3881 4.89085 54.876 4.89085C55.3791 4.89085 55.806 4.71552 56.1566 4.36486C56.5225 3.99896 56.7055 3.57207 56.7055 3.0842C56.7055 2.59633 56.5225 2.16945 56.1566 1.80354C55.806 1.43764 55.3791 1.25469 54.876 1.25469C54.3881 1.25469 53.9612 1.43764 53.5953 1.80354C53.2446 2.16945 53.0693 2.59633 53.0693 3.0842C53.0693 3.57207 53.2446 3.99896 53.5953 4.36486Z"
     fill="currentColor"
     id="path8"
     style="fill:#0c5153;fill-opacity:1" />
  <path
     d="M53.4124 17.6974V6.26298H56.3624V17.6974H53.4124Z"
     fill="currentColor"
     id="path9"
     style="fill:#0c5153;fill-opacity:1" />
  <path
     d="M49.1461 6.26514H52.2792L48.643 17.6996H45.8301L43.7262 10.7703L41.6222 17.6996H38.8094L35.1732 6.26514H38.3063L40.2501 13.2859L42.3312 6.26514H45.1212L47.2023 13.3088L49.1461 6.26514Z"
     fill="currentColor"
     id="path10"
     style="fill:#0c5153;fill-opacity:1" />
</svg>
