<?xml version="1.0" encoding="UTF-8" standalone="no"?>
<svg
   viewBox="0 0 32 32"
   fill="none"
   class="h-[22px] text-[#003F45] lg:h-[30px]"
   version="1.1"
   id="svg10"
   sodipodi:docname="logo.svg"
   inkscape:version="1.3.2 (1:1.3.2+202311252150+091e20ef0f)"
   width="32"
   height="32"
   xmlns:inkscape="http://www.inkscape.org/namespaces/inkscape"
   xmlns:sodipodi="http://sodipodi.sourceforge.net/DTD/sodipodi-0.dtd"
   xmlns="http://www.w3.org/2000/svg"
   xmlns:svg="http://www.w3.org/2000/svg">
  <defs
     id="defs10" />
  <sodipodi:namedview
     id="namedview10"
     pagecolor="#ffffff"
     bordercolor="#666666"
     borderopacity="1.0"
     inkscape:showpageshadow="2"
     inkscape:pageopacity="0.0"
     inkscape:pagecheckerboard="0"
     inkscape:deskcolor="#d1d1d1"
     inkscape:zoom="4.1762295"
     inkscape:cx="44.178607"
     inkscape:cy="28.374877"
     inkscape:window-width="1920"
     inkscape:window-height="1043"
     inkscape:window-x="0"
     inkscape:window-y="0"
     inkscape:window-maximized="1"
     inkscape:current-layer="svg10" />
  <path
     fill-rule="evenodd"
     clip-rule="evenodd"
     d="m 25.352,5.95055 c 2.4993,0 4.8222,1.75771 4.8222,4.26405 v 11.57075 c 0,2.5064 -2.3229,4.2641 -4.8222,4.2641 H 6.64798 c -2.49926,0 -4.82218,-1.7577 -4.82218,-4.2641 V 10.2146 c 0,-2.50634 2.32292,-4.26405 4.82219,-4.26405 z m 2.1795,2.97797 C 27.3943,8.77949 27.1634,8.79127 27.0171,8.93139 l -9.9477,9.52626 c -0.0123,0.0118 -0.0195,0.028 -0.0195,0.0451 v 3.4836 c 0,0.3339 0.3834,0.5222 0.6477,0.3182 L 27.918,14.41412 c 0.0986,-0.07612 0.1563,-0.19364 0.1563,-0.31819 V 10.2146 c 0,-0.44583 -0.1924,-0.9056 -0.5428,-1.28608 z M 23.9,8.05043 c 0.3623,0 0.5397,0.4417 0.278,0.6923 l -6.4481,6.17489 c -0.2556,0.24481 -0.68,0.06363 -0.68,-0.29032 V 8.45241 c 0,-0.22201 0.18,-0.40198 0.402,-0.40198 z m -9.5019,0 c 0.222,0 0.402,0.17997 0.402,0.40198 v 6.13696 c 0,0.35544 -0.4275,0.53598 -0.6823,0.28816 L 7.808,8.74057 C 7.54934,8.489 7.72744,8.05043 8.08827,8.05043 Z M 4.47386,8.92269 C 4.61202,8.77367 4.84372,8.78679 4.9894,8.92848 l 9.7885,9.52027 0.0073,0.0071 c 0.0094,0.0091 0.0149,0.0216 0.0149,0.0347 v 3.4666 c 0,0.3353 -0.3862,0.5232 -0.65,0.3164 L 4.07963,14.37737 C 3.98244,14.30118 3.92568,14.18453 3.92568,14.06104 V 10.2146 c 0,-0.44811 0.19439,-0.9103 0.54818,-1.29191 z m -0.54818,8.82836 c 0,-0.3352 0.3862,-0.5231 0.65001,-0.3163 l 7.39261,5.7965 c 0.3006,0.2357 0.1339,0.7183 -0.24803,0.7183 H 6.64798 c -1.66743,0 -2.7223,-1.1203 -2.7223,-2.1642 z m 16.25592,6.1985 c -0.3835,0 -0.5492,-0.4858 -0.2457,-0.7202 l 7.4908,-5.7831 c 0.2643,-0.204 0.6476,-0.0156 0.6476,0.3182 v 4.0209 c 0,1.0439 -1.0548,2.1642 -2.7223,2.1642 z"
     fill="currentColor"
     id="path1"
     style="fill:#fff;fill-opacity:1" />
</svg>
