<svg width="152" height="25" viewBox="0 0 152 25" fill="none" xmlns="http://www.w3.org/2000/svg">
    <path fill-rule="evenodd" clip-rule="evenodd"
        d="M29.3867 0C32.4955 0 35.3848 2.18632 35.3848 5.30384V19.6962C35.3848 22.8137 32.4955 25 29.3867 25L6.1217 25C3.01299 25 0.123627 22.8137 0.123627 19.6962V5.30384C0.123627 2.18632 3.01299 0 6.12171 0H29.3867ZM32.0977 3.70415C31.927 3.51878 31.6398 3.53343 31.4578 3.70772L19.0844 15.557C19.0691 15.5716 19.0602 15.5918 19.0602 15.613V19.9462C19.0602 20.3614 19.5371 20.5957 19.8657 20.342L32.5784 10.5274C32.7011 10.4327 32.7729 10.2866 32.7729 10.1316V5.30384C32.7729 4.7493 32.5335 4.17741 32.0977 3.70415ZM27.5806 2.61194C28.0313 2.61194 28.2519 3.16135 27.9264 3.47306L19.906 11.1537C19.588 11.4582 19.0602 11.2328 19.0602 10.7926V3.11194C19.0602 2.8358 19.284 2.61194 19.5602 2.61194L27.5806 2.61194ZM15.7617 2.61194C16.0378 2.61194 16.2617 2.8358 16.2617 3.11194V10.7454C16.2617 11.1875 15.73 11.4121 15.4131 11.1038L7.56459 3.47037C7.24286 3.15745 7.46439 2.61194 7.9132 2.61194L15.7617 2.61194ZM3.41742 3.6969C3.58927 3.51154 3.87747 3.52786 4.05867 3.7041L16.2341 15.5459L16.2431 15.5547C16.2549 15.566 16.2617 15.5816 16.2617 15.5979V19.9099C16.2617 20.3268 15.7813 20.5606 15.4532 20.3033L2.92705 10.4817C2.80617 10.3869 2.73557 10.2418 2.73557 10.0882L2.73557 5.30384C2.73557 4.74646 2.97736 4.17156 3.41742 3.6969ZM2.73557 14.6781C2.73557 14.2611 3.21594 14.0273 3.54408 14.2846L12.7394 21.4946C13.1133 21.7877 12.906 22.3881 12.4309 22.3881H6.1217C4.04766 22.3881 2.73557 20.9946 2.73557 19.6962L2.73557 14.6781ZM22.9555 22.3881C22.4785 22.3881 22.2723 21.7838 22.6499 21.4923L31.9673 14.299C32.296 14.0452 32.7729 14.2795 32.7729 14.6947V19.6962C32.7729 20.9946 31.4608 22.3881 29.3867 22.3881L22.9555 22.3881Z"
        fill="white" />
    <path d="M73.0199 22.0074V1.24219H76.6894V22.0074H73.0199Z" fill="white" />
    <path fill-rule="evenodd" clip-rule="evenodd"
        d="M93.9294 2.10938H90.2599V9.47676C89.179 8.09241 87.6429 7.40024 85.6517 7.40024C83.7364 7.40024 82.096 8.13034 80.7307 9.59054C79.3842 11.0318 78.711 12.8049 78.711 14.9098C78.711 17.0148 79.3842 18.7974 80.7307 20.2576C82.096 21.6988 83.7364 22.4195 85.6517 22.4195C87.6429 22.4195 89.179 21.7273 90.2599 20.3429V22.0212H93.9294V2.10938ZM86.3344 18.9207C85.1966 18.9207 84.2484 18.5509 83.4899 17.8113C82.7503 17.0527 82.3805 16.0856 82.3805 14.9098C82.3805 13.7341 82.7503 12.7764 83.4899 12.0369C84.2484 11.2783 85.1966 10.899 86.3344 10.899C87.4722 10.899 88.4109 11.2783 89.1505 12.0369C89.8901 12.7764 90.2599 13.7341 90.2599 14.9098C90.2599 16.0856 89.8901 17.0527 89.1505 17.8113C88.4109 18.5509 87.4722 18.9207 86.3344 18.9207Z"
        fill="white" />
    <path
        d="M104.624 7.40024C106.179 7.40024 107.459 7.92174 108.464 8.96474C109.488 10.0077 110 11.449 110 13.2885V22.0212H106.331V13.7436C106.331 12.7954 106.075 12.0748 105.563 11.5817C105.051 11.0697 104.368 10.8137 103.515 10.8137C102.567 10.8137 101.808 11.1076 101.239 11.6955C100.67 12.2834 100.386 13.1652 100.386 14.3409V22.0212H96.7164V2.10938H100.386V9.39142C101.277 8.06397 102.69 7.40024 104.624 7.40024Z"
        fill="white" />
    <path fill-rule="evenodd" clip-rule="evenodd"
        d="M119.677 19.0739C117.496 19.0739 116.159 18.1826 115.666 16.4H126.39C126.485 15.8691 126.533 15.3665 126.533 14.8924C126.533 12.7685 125.85 10.9859 124.485 9.54467C123.138 8.10343 121.422 7.38281 119.336 7.38281C117.136 7.38281 115.335 8.10343 113.931 9.54467C112.528 10.9669 111.826 12.7495 111.826 14.8924C111.826 17.0543 112.537 18.8463 113.96 20.2686C115.382 21.6909 117.269 22.402 119.62 22.402C122.351 22.402 124.418 21.3875 125.821 19.3584L122.863 17.6516C122.143 18.5998 121.081 19.0739 119.677 19.0739ZM122.863 13.5555H115.61C115.818 12.6452 116.245 11.9436 116.89 11.4505C117.534 10.9385 118.35 10.6825 119.336 10.6825C120.17 10.6825 120.91 10.9195 121.555 11.3936C122.218 11.8677 122.655 12.5883 122.863 13.5555Z"
        fill="white" />
    <path fill-rule="evenodd" clip-rule="evenodd"
        d="M149.686 20.2402C148.226 21.6814 146.443 22.402 144.338 22.402C142.233 22.402 140.451 21.6814 138.991 20.2402C137.549 18.78 136.829 16.9974 136.829 14.8924C136.829 12.7875 137.549 11.0144 138.991 9.57312C140.451 8.11291 142.233 7.38281 144.338 7.38281C146.443 7.38281 148.226 8.11291 149.686 9.57312C151.146 11.0144 151.876 12.7875 151.876 14.8924C151.876 16.9974 151.146 18.78 149.686 20.2402ZM141.579 17.7085C142.319 18.4481 143.238 18.8179 144.338 18.8179C145.438 18.8179 146.358 18.4481 147.098 17.7085C147.837 16.9689 148.207 16.0302 148.207 14.8924C148.207 13.7546 147.837 12.8159 147.098 12.0763C146.358 11.3367 145.438 10.9669 144.338 10.9669C143.238 10.9669 142.319 11.3367 141.579 12.0763C140.858 12.8159 140.498 13.7546 140.498 14.8924C140.498 16.0302 140.858 16.9689 141.579 17.7085Z"
        fill="white" />
    <path
        d="M132.195 10.2444C132.536 9.33418 133.096 8.65149 133.873 8.19636C134.67 7.74124 135.552 7.51367 136.519 7.51367V11.6098C135.4 11.4771 134.395 11.7046 133.503 12.2925C132.631 12.8804 132.195 13.857 132.195 15.2224V22.0209H128.525V7.79813H132.195V10.2444Z"
        fill="white" />
    <path
        d="M66.7867 5.41546C67.2418 5.85163 67.7728 6.06971 68.3796 6.06971C69.0054 6.06971 69.5364 5.85163 69.9726 5.41546C70.4277 4.96033 70.6553 4.42935 70.6553 3.82251C70.6553 3.21568 70.4277 2.6847 69.9726 2.22957C69.5364 1.77444 69.0054 1.54688 68.3796 1.54688C67.7728 1.54688 67.2418 1.77444 66.7867 2.22957C66.3505 2.6847 66.1324 3.21568 66.1324 3.82251C66.1324 4.42935 66.3505 4.96033 66.7867 5.41546Z"
        fill="white" />
    <path d="M66.5591 7.77644V21.9992H70.2286V7.77644H66.5591Z" fill="white" />
    <path
        d="M61.2553 7.78516H65.1523L60.6295 22.0079H57.1307L54.5137 13.3889L51.8967 22.0079H48.3979L43.8751 7.78516H47.7721L50.19 16.5179L52.7785 7.78516H56.2489L58.8374 16.5464L61.2553 7.78516Z"
        fill="white" />
</svg>