<svg viewBox="0 0 20 20" fill="none" xmlns="http://www.w3.org/2000/svg">
  <path
    d="M15.7758 3.00165C15.6121 2.99336 15.4422 3.01615 15.2764 3.07417L7.64666 5.67475L4.02036 5.95242C2.88482 6.03945 2 6.99679 2 8.13441V11.1556C2 12.2933 2.88482 13.2506 4.02036 13.3376C4.03487 13.3376 4.05145 13.3376 4.06595 13.3376H3.5334L3.88982 16.535C3.98099 17.3638 4.69175 18 5.52476 18C6.42822 18 7.17213 17.2561 7.17213 16.3526V13.5801L7.64873 13.6153L15.2764 16.2159H15.2785C16.1633 16.5184 17.1185 15.8346 17.1185 14.898V11.3173C17.7008 11.081 18.1132 10.5112 18.1132 9.84395C18.1132 9.17671 17.7008 8.60686 17.1185 8.37064V4.39207V4.39C17.1185 3.68754 16.5818 3.12805 15.9374 3.0203C15.8856 3.00994 15.8297 3.00372 15.7758 3.00165ZM15.7654 4.19107C15.8587 4.19936 15.925 4.27603 15.925 4.39207V14.898C15.925 15.0513 15.8089 15.1363 15.6618 15.0865L7.96163 12.4611C7.91397 12.4466 7.86424 12.4362 7.8145 12.4321L6.62094 12.3388C6.45516 12.3264 6.29146 12.3844 6.17127 12.4963C6.04902 12.6103 5.97856 12.7678 5.97856 12.9335V16.3526C5.97856 16.6096 5.78171 16.8064 5.52476 16.8064C5.28853 16.8064 5.10204 16.6365 5.0751 16.4024L4.66066 12.6766C4.62958 12.3906 4.39957 12.1689 4.11154 12.1461C3.58935 12.1068 3.19357 11.6799 3.19357 11.1556V8.13441C3.19357 7.61015 3.58935 7.18328 4.11154 7.14391L7.17213 6.90768V10.6397C7.17006 10.8552 7.28196 11.0541 7.46845 11.1639C7.65495 11.2717 7.88289 11.2717 8.06938 11.1639C8.25588 11.0541 8.36777 10.8552 8.3657 10.6397V6.69011L15.6618 4.20351C15.6991 4.19107 15.7343 4.18693 15.7654 4.19107Z"
    fill="currentColor" stroke="currentColor" stroke-width="0.5" />
</svg>