<svg viewBox="0 0 22 22" fill="none" xmlns="http://www.w3.org/2000/svg">
  <path
    d="M15.2401 1H7.04802C5.91406 1 5 1.91406 5 3.04802V18.802C5 19.9359 5.91406 20.85 7.04802 20.85H15.2401C16.374 20.85 17.2881 19.9359 17.2881 18.802V3.04802C17.2881 1.91406 16.374 1 15.2401 1ZM16.3429 18.802C16.3429 19.4157 15.8538 19.9048 15.2401 19.9048H7.04802C6.43427 19.9048 5.94524 19.4157 5.94524 18.802V3.04802C5.94524 2.43427 6.43427 1.94524 7.04802 1.94524H8.30833V2.62461C8.30833 2.8921 8.51346 3.09723 8.78095 3.09723H13.5071C13.7746 3.09723 13.9798 2.8921 13.9798 2.62461V1.94524H15.2401C15.8538 1.94524 16.3429 2.43427 16.3429 3.04802V18.802Z"
    fill="currentColor" stroke="currentColor" stroke-width="0.6" />
</svg>